# xmcd
#
# Track frame offsets: 
#        150
#        9027
#        30777
#        45259
#        52142
#        59960
#        76169
#        92778
#        106612
#        117974
#        131287
#        149439
#        167637
#        183093
#        193234
#        205486
#        219657
#
# Disc length: 3169 seconds
#
# Revision: 0
# Processed by: cddbd v1.5.2PL0 Copyright (c) Steve Scherf et al.
# Submitted via: ExactAudioCopy v0.99pb5
#
DISCID=e20c5f11
DTITLE=Андрей Веренок - Ангел мне сигналит крылом
DYEAR=2009
DGENRE=Folklore
TTITLE0=Злые думы так и льнут...
TTITLE1=Был тогда ноябрь...
TTITLE2=Вот над Монмартом...
TTITLE3=Если хозяин бросит собаку...
TTITLE4=Когда меня оставят силы...
TTITLE5=Репутацию свою сам испортил...
TTITLE6=Щи прокисли, чай несладок...
TTITLE7=Сижу у костра, греясь...
TTITLE8=Снова в рифму строчку...
TTITLE9=Стать культурным и идейным...
TTITLE10=То ли радость, то ли боль...
TTITLE11=Сколько нашего народа...
TTITLE12=Мечтаю жить я...
TTITLE13=Поехали в Сан-Франциско...
TTITLE14=Мы жили на Метростроевской...
TTITLE15=Вот и сделался женатым... 
TTITLE16=Раскрутился жизни клубок... (Ангел мне сигналит крылом)
EXTD=
EXTT0=
EXTT1=
EXTT2=
EXTT3=
EXTT4=
EXTT5=
EXTT6=
EXTT7=
EXTT8=
EXTT9=
EXTT10=
EXTT11=
EXTT12=
EXTT13=
EXTT14=
EXTT15=
EXTT16=
PLAYORDER=
